<?xml version="1.0" encoding="utf-8"?>
<!-- Generator: Adobe Illustrator 23.0.3, SVG Export Plug-In . SVG Version: 6.00 Build 0)  -->
<svg version="1.1" id="Capa_1" xmlns="http://www.w3.org/2000/svg" xmlns:xlink="http://www.w3.org/1999/xlink" x="0px" y="0px"
	 width="800px" height="600px" viewBox="0 0 800 600" style="enable-background:new 0 0 800 600;" xml:space="preserve">
<style type="text/css">
	.st0{fill:none;stroke:#000000;stroke-width:0.8449;stroke-miterlimit:10;}
</style>
<path class="st0" d="M0,232.05h10.7l5.15-8.78h11.77l11.04-8.16c0,0,5.89-7.13,13.25-7.64l33.12,19.56l30.17-19.56l34.59-18.08
	v-5.02l50.04-30.12c0,0,6.62-9.41,13.98-4.39c0,0-5.89-9.85,9.57-1.47c0,0,5.89-0.41,10.3,16.53c0,0,9.7-1.66,21.41,15.13
	c0,0,11.71-0.45,13.3,3.63l17.03-5.44l18.09,10.3l14.37-15.75c0,0,10.64-12.25,24.48,24.95l27.14-6.35l27.67-9.53l27.67,0.45
	l15.96-3.18l11.17-4.08c0,0,4.79-1.81,7.98,6.35c0,0,23.41-3.89,31.4,7.13l14.37,3.76c0,0,31.4-1.4,47.36,15.18
	c0,0,17.03-4.29,46.29,12.5l19.69,2.72c0,0,14.9-4.54,22.88,0.91l9.05,3.63l10.11,7.26c0,0,15.96-7.71,24.48-5.9
	c0,0,12.77,3.63,14.37,9.07l11.71,4.99h9.58L726,249l6-3.63"/>
</svg>
